<svg width="160" height="34" viewBox="0 0 160 34" fill="none" xmlns="http://www.w3.org/2000/svg">
<!-- Icône V stylisée à gauche -->
<mask id="mask0" style="mask-type:luminance" maskUnits="userSpaceOnUse" x="0" y="5" width="23" height="24">
<path d="M22.6316 5.66699H0V28.3337H22.6316V5.66699Z" fill="white"/>
</mask>
<g mask="url(#mask0)">
<!-- Forme de fond pour l'icône V -->
<path d="M11.3158 27.3337C17.5724 27.3337 22.6316 22.2745 22.6316 16.018C22.6316 9.76141 17.5724 4.70215 11.3158 4.70215C5.05924 4.70215 0 9.76141 0 16.018C0 22.2745 5.05924 27.3337 11.3158 27.3337Z" fill="#FF532E"/>
<!-- V stylisé blanc -->
<path d="M6.5 10L11.3158 22L16.1316 10H18.5L11.3158 25.5L4.13159 10H6.5Z" fill="white"/>
</g>

<!-- Texte "Varobabo" -->
<g>
<!-- V -->
<path d="M34.5 27.2L28.8 14.1H32.6L36.3 23.1L40 14.1H43.7L38 27.2H34.5Z" fill="#1F2937"/>

<!-- a -->
<path d="M50.4 27.5C49.2 27.5 48.1 27.2 47.2 26.6C46.3 26 45.6 25.2 45.1 24.1C44.6 23 44.3 21.9 44.3 20.6C44.3 19.3 44.6 18.2 45.1 17.1C45.6 16 46.3 15.3 47.2 14.7C48.1 14.1 49.2 13.8 50.4 13.8C51.3 13.8 52.2 14 53 14.4C53.8 14.8 54.4 15.3 54.8 16C55.3 16.6 55.5 17.4 55.5 18.3V23C55.5 23.9 55.3 24.6 54.8 25.3C54.4 26 53.8 26.5 53 26.9C52.2 27.3 51.3 27.5 50.4 27.5ZM51.1 24.2C51.6 24.2 52 24.1 52.4 23.9C52.8 23.7 53.1 23.3 53.3 22.9C53.5 22.5 53.6 21.9 53.6 21.3V19.9C53.6 19.2 53.5 18.7 53.3 18.3C53.1 17.9 52.8 17.6 52.4 17.4C52 17.2 51.6 17.1 51.1 17.1C50.5 17.1 50 17.2 49.6 17.5C49.2 17.8 48.9 18.2 48.7 18.8C48.5 19.3 48.4 19.9 48.4 20.6C48.4 21.3 48.5 22 48.7 22.5C48.9 23 49.2 23.4 49.6 23.7C50 24 50.5 24.2 51.1 24.2ZM53.3 27.2V23.7L53.9 20.5L53.3 17.3V14.1H56.8V27.2H53.3Z" fill="#1F2937"/>

<!-- r -->
<path d="M60.5 27.2V14.1H64V27.2H60.5ZM64 19.9L62.6 19C62.8 17.4 63.3 16.1 64.1 15.2C64.9 14.3 66 13.8 67.5 13.8C68.1 13.8 68.7 13.9 69.2 14.1C69.7 14.3 70.2 14.7 70.6 15.1L68.4 17.7C68.2 17.5 67.9 17.3 67.6 17.2C67.3 17.1 67 17 66.6 17C65.8 17 65.2 17.3 64.7 17.8C64.3 18.2 64 19 64 19.9Z" fill="#1F2937"/>

<!-- o -->
<path d="M77.2 27.5C76 27.5 74.9 27.2 74 26.6C73.1 26 72.4 25.2 71.9 24.1C71.4 23 71.1 21.9 71.1 20.6C71.1 19.3 71.4 18.2 71.9 17.1C72.4 16 73.1 15.3 74 14.7C74.9 14.1 76 13.8 77.2 13.8C78.4 13.8 79.5 14.1 80.4 14.7C81.3 15.3 82 16 82.5 17.1C83 18.2 83.3 19.3 83.3 20.6C83.3 21.9 83 23 82.5 24.1C82 25.2 81.3 26 80.4 26.6C79.5 27.2 78.4 27.5 77.2 27.5ZM77.2 24.2C77.9 24.2 78.5 24 79 23.7C79.5 23.4 79.9 23 80.1 22.5C80.3 22 80.5 21.3 80.5 20.6C80.5 19.9 80.3 19.3 80.1 18.8C79.9 18.2 79.5 17.8 79 17.5C78.5 17.2 77.9 17.1 77.2 17.1C76.5 17.1 75.9 17.2 75.4 17.5C74.9 17.8 74.5 18.2 74.3 18.8C74.1 19.3 74 19.9 74 20.6C74 21.3 74.1 22 74.3 22.5C74.5 23 74.9 23.4 75.4 23.7C75.9 24 76.5 24.2 77.2 24.2Z" fill="#1F2937"/>

<!-- b -->
<path d="M85.5 27.2V7.5H89V15.1C89.5 14.5 90.1 14 90.9 13.7C91.7 13.4 92.5 13.2 93.4 13.2C94.6 13.2 95.7 13.5 96.6 14.1C97.5 14.7 98.2 15.5 98.7 16.6C99.2 17.7 99.5 18.8 99.5 20.1C99.5 21.4 99.2 22.5 98.7 23.6C98.2 24.7 97.5 25.5 96.6 26.1C95.7 26.7 94.6 27 93.4 27C92.5 27 91.7 26.8 90.9 26.5C90.1 26.2 89.5 25.7 89 25.1V27.2H85.5ZM92.6 24.2C93.2 24.2 93.7 24 94.2 23.7C94.7 23.4 95 23 95.2 22.5C95.4 22 95.6 21.3 95.6 20.6C95.6 19.9 95.4 19.3 95.2 18.8C95 18.2 94.7 17.8 94.2 17.5C93.7 17.2 93.2 17.1 92.6 17.1C92 17.1 91.5 17.2 91 17.5C90.5 17.8 90.2 18.2 90 18.8C89.8 19.3 89.7 19.9 89.7 20.6C89.7 21.3 89.8 22 90 22.5C90.2 23 90.5 23.4 91 23.7C91.5 24 92 24.2 92.6 24.2Z" fill="#1F2937"/>

<!-- a -->
<path d="M107.2 27.5C106 27.5 104.9 27.2 104 26.6C103.1 26 102.4 25.2 101.9 24.1C101.4 23 101.1 21.9 101.1 20.6C101.1 19.3 101.4 18.2 101.9 17.1C102.4 16 103.1 15.3 104 14.7C104.9 14.1 106 13.8 107.2 13.8C108.1 13.8 109 14 109.8 14.4C110.6 14.8 111.2 15.3 111.6 16C112.1 16.6 112.3 17.4 112.3 18.3V23C112.3 23.9 112.1 24.6 111.6 25.3C111.2 26 110.6 26.5 109.8 26.9C109 27.3 108.1 27.5 107.2 27.5ZM107.9 24.2C108.4 24.2 108.8 24.1 109.2 23.9C109.6 23.7 109.9 23.3 110.1 22.9C110.3 22.5 110.4 21.9 110.4 21.3V19.9C110.4 19.2 110.3 18.7 110.1 18.3C109.9 17.9 109.6 17.6 109.2 17.4C108.8 17.2 108.4 17.1 107.9 17.1C107.3 17.1 106.8 17.2 106.4 17.5C106 17.8 105.7 18.2 105.5 18.8C105.3 19.3 105.2 19.9 105.2 20.6C105.2 21.3 105.3 22 105.5 22.5C105.7 23 106 23.4 106.4 23.7C106.8 24 107.3 24.2 107.9 24.2ZM110.1 27.2V23.7L110.7 20.5L110.1 17.3V14.1H113.6V27.2H110.1Z" fill="#1F2937"/>

<!-- b -->
<path d="M116.3 27.2V7.5H119.8V15.1C120.3 14.5 120.9 14 121.7 13.7C122.5 13.4 123.3 13.2 124.2 13.2C125.4 13.2 126.5 13.5 127.4 14.1C128.3 14.7 129 15.5 129.5 16.6C130 17.7 130.3 18.8 130.3 20.1C130.3 21.4 130 22.5 129.5 23.6C129 24.7 128.3 25.5 127.4 26.1C126.5 26.7 125.4 27 124.2 27C123.3 27 122.5 26.8 121.7 26.5C120.9 26.2 120.3 25.7 119.8 25.1V27.2H116.3ZM123.4 24.2C124 24.2 124.5 24 125 23.7C125.5 23.4 125.8 23 126 22.5C126.2 22 126.4 21.3 126.4 20.6C126.4 19.9 126.2 19.3 126 18.8C125.8 18.2 125.5 17.8 125 17.5C124.5 17.2 124 17.1 123.4 17.1C122.8 17.1 122.3 17.2 121.8 17.5C121.3 17.8 121 18.2 120.8 18.8C120.6 19.3 120.5 19.9 120.5 20.6C120.5 21.3 120.6 22 120.8 22.5C121 23 121.3 23.4 121.8 23.7C122.3 24 122.8 24.2 123.4 24.2Z" fill="#1F2937"/>

<!-- o -->
<path d="M138.5 27.5C137.3 27.5 136.2 27.2 135.3 26.6C134.4 26 133.7 25.2 133.2 24.1C132.7 23 132.4 21.9 132.4 20.6C132.4 19.3 132.7 18.2 133.2 17.1C133.7 16 134.4 15.3 135.3 14.7C136.2 14.1 137.3 13.8 138.5 13.8C139.7 13.8 140.8 14.1 141.7 14.7C142.6 15.3 143.3 16 143.8 17.1C144.3 18.2 144.6 19.3 144.6 20.6C144.6 21.9 144.3 23 143.8 24.1C143.3 25.2 142.6 26 141.7 26.6C140.8 27.2 139.7 27.5 138.5 27.5ZM138.5 24.2C139.2 24.2 139.8 24 140.3 23.7C140.8 23.4 141.2 23 141.4 22.5C141.6 22 141.8 21.3 141.8 20.6C141.8 19.9 141.6 19.3 141.4 18.8C141.2 18.2 140.8 17.8 140.3 17.5C139.8 17.2 139.2 17.1 138.5 17.1C137.8 17.1 137.2 17.2 136.7 17.5C136.2 17.8 135.8 18.2 135.6 18.8C135.4 19.3 135.3 19.9 135.3 20.6C135.3 21.3 135.4 22 135.6 22.5C135.8 23 136.2 23.4 136.7 23.7C137.2 24 137.8 24.2 138.5 24.2Z" fill="#1F2937"/>
</g>
</svg>
